<svg width="24" height="24" viewBox="0 0 24 24" fill="none" xmlns="http://www.w3.org/2000/svg">
<path d="M12 1.5C9.21523 1.5 6.54451 2.60625 4.57538 4.57538C2.60625 6.54451 1.5 9.21523 1.5 12C1.5 14.7848 2.60625 17.4555 4.57538 19.4246C6.54451 21.3938 9.21523 22.5 12 22.5C14.7848 22.5 17.4555 21.3938 19.4246 19.4246C21.3938 17.4555 22.5 14.7848 22.5 12C22.5 9.21523 21.3938 6.54451 19.4246 4.57538C17.4555 2.60625 14.7848 1.5 12 1.5ZM10.1175 3.2025C10.2375 3.435 10.3575 3.6525 10.485 3.8775C11.055 4.8975 11.5575 5.775 11.235 6.9525C11.1075 7.4625 10.485 7.7025 9.63 8.0025C9.01667 8.14736 8.4589 8.46795 8.025 8.925C7.73131 9.36112 7.54844 9.86229 7.49225 10.3851C7.43605 10.9078 7.50822 11.4364 7.7025 11.925C7.845 12.48 7.9275 12.825 7.7775 13.05C7.6275 13.275 7.665 13.185 7.2675 13.2375C6.82034 13.2655 6.38542 13.3949 5.99561 13.6158C5.60581 13.8367 5.27134 14.1433 5.0175 14.5125C4.58473 15.1405 4.34253 15.8801 4.32 16.6425C3.46018 15.2464 3.00333 13.6396 3 12C3.00078 9.94059 3.70782 7.94374 5.00313 6.3427C6.29843 4.74165 8.10365 3.63326 10.1175 3.2025ZM5.9325 18.63C5.8125 17.7825 5.625 16.2525 6.225 15.45C6.36189 15.2366 6.55064 15.0614 6.77361 14.9407C6.99657 14.8201 7.24649 14.7579 7.5 14.76C7.79796 14.7419 8.08789 14.6562 8.34779 14.5093C8.60769 14.3625 8.83073 14.1584 9 13.9125C9.19129 13.5568 9.30128 13.1631 9.32203 12.7597C9.34278 12.3564 9.27378 11.9535 9.12 11.58C8.925 10.83 8.82 10.3275 9.195 9.825C9.48069 9.64672 9.79171 9.5127 10.1175 9.4275C11.07 9.105 12.3675 8.6775 12.6975 7.2975C13.1175 5.55 12.3975 4.2975 11.76 3.135L11.7225 3H12C13.6973 3 15.36 3.4845 16.7925 4.395C16.0038 5.61577 15.0554 6.7256 13.9725 7.695C12.9375 8.6325 13.695 9.7125 14.1975 10.425C14.4716 10.7189 14.6839 11.0648 14.8218 11.4423C14.9596 11.8198 15.0202 12.2211 15 12.6225C14.9459 12.8316 14.9464 13.0511 15.0016 13.2599C15.0568 13.4688 15.1647 13.6599 15.315 13.815C15.5422 13.9683 15.8051 14.0606 16.0783 14.0829C16.3515 14.1052 16.6259 14.0569 16.875 13.9425C17.055 13.8915 17.2372 13.854 17.4225 13.83C17.505 14.115 17.3475 14.3475 16.6725 14.97C15.9975 15.5925 15.105 16.4325 15.375 17.775C15.4707 18.1611 15.6472 18.5225 15.8928 18.8354C16.1384 19.1482 16.4476 19.4054 16.8 19.59C15.1366 20.6519 13.1686 21.1335 11.2028 20.9599C9.23706 20.7862 7.38398 19.967 5.9325 18.63ZM18.0825 18.63L17.79 18.4425C17.265 18.1275 16.9425 17.9025 16.86 17.49C16.7775 17.0775 17.0475 16.7025 17.715 16.08C18.3825 15.4575 19.3125 14.58 18.8175 13.2525C18.36 12.045 17.1 12.3525 16.53 12.5025C16.5123 11.4293 16.1226 10.3954 15.4275 9.5775C15.2397 9.35221 15.0879 9.09922 14.9775 8.8275C16.1278 7.7976 17.1365 6.61985 17.9775 5.325C18.9152 6.15905 19.6673 7.18074 20.1851 8.32392C20.7029 9.4671 20.9749 10.7063 20.9834 11.9612C20.9919 13.2162 20.7367 14.4589 20.2344 15.609C19.7321 16.7591 18.9939 17.7908 18.0675 18.6375L18.0825 18.63Z" fill="#2A2941"/>
</svg>
